<?xml version="1.0" standalone="no"?><!DOCTYPE svg PUBLIC "-//W3C//DTD SVG 1.1//EN" "http://www.w3.org/Graphics/SVG/1.1/DTD/svg11.dtd"><svg t="1634539941133" class="icon" viewBox="0 0 1280 1024" version="1.1" xmlns="http://www.w3.org/2000/svg" p-id="5915" xmlns:xlink="http://www.w3.org/1999/xlink" width="160" height="128"><defs><style type="text/css"></style></defs><path d="M645.83087239 118.25369141a65.6715876 65.6715876 0 0 1 56.24975391 29.5311208l435.93559278 647.99716464a72.84343096 72.84343096 0 0 1 6.74997011 72.4215586A65.95283672 65.95283672 0 0 1 1085.56332346 905.75024609H207.36404104a65.95283672 65.95283672 0 0 1-59.76536396-37.54671064A72.84343096 72.84343096 0 0 1 153.64552571 795.78197685L591.26861145 147.78481221A65.6715876 65.6715876 0 0 1 645.83087239 118.25369141m0-56.24975391a121.92134151 121.92134151 0 0 0-101.81205439 54.42163682L105.55198577 767.51647578A124.45258096 124.45258096 0 0 0 207.36404104 962h878.19928242a124.45258096 124.45258096 0 0 0 101.8120544-194.48352422L748.34604915 116.42557432A121.92134151 121.92134151 0 0 0 645.83087239 62.0039375z" fill="#333333" p-id="5916"></path><path d="M620.79973226 635.75142734l-18.42179502-187.87417822q-0.84374648-8.71871221-0.84374561-17.43742353v-47.95291494a44.85917901 44.85917901 0 0 1 44.29668076-44.99980313 44.85917901 44.85917901 0 0 1 44.85917901 44.85917813v48.09353994q0 8.57808721-0.84374649 17.29679941L672.40888138 635.75142734a25.87488662 25.87488662 0 0 1-25.7342625 23.34364805 25.87488662 25.87488662 0 0 1-25.87488662-23.34364805z m-15.74993145 93.51521544a42.18731543 42.18731543 0 0 1 42.18731543-42.18731544 42.18731543 42.18731543 0 0 1 42.18731543 42.18731544 42.18731543 42.18731543 0 0 1-42.18731543 42.18731542 42.18731543 42.18731543 0 0 1-42.18731543-42.18731542z" fill="#333333" p-id="5917"></path></svg>