<?xml version="1.0" standalone="no"?><!DOCTYPE svg PUBLIC "-//W3C//DTD SVG 1.1//EN" "http://www.w3.org/Graphics/SVG/1.1/DTD/svg11.dtd"><svg t="1634539997572" class="icon" viewBox="0 0 1024 1024" version="1.1" xmlns="http://www.w3.org/2000/svg" p-id="7089" xmlns:xlink="http://www.w3.org/1999/xlink" width="128" height="128"><defs><style type="text/css"></style></defs><path d="M193.94 193.94C281.96 106.01 387.98 62 512 62c124.02 0 230.04 44.01 318.06 131.94C917.99 281.96 962 387.98 962 512c0 124.02-44.01 230.04-131.94 318.06C742.04 917.99 636.02 962 512 962c-124.02 0-230.04-44.01-318.06-131.94C106.01 742.04 62 636.02 62 512 62 387.98 106.01 281.96 193.94 193.94zM512 98.81c-74.97 0-144.27 18.36-207.72 55.17C240.83 190.7 190.7 240.83 153.98 304.28 117.17 367.73 98.81 437.03 98.81 512c0 113.94 40.41 211.32 121.14 292.05C300.68 884.87 398.06 925.19 512 925.19s211.32-40.41 292.05-121.14C884.87 723.32 925.19 625.94 925.19 512c0-113.94-40.41-211.32-121.14-292.05S625.94 98.81 512 98.81z" p-id="7090"></path></svg>