<svg viewBox="0 0 165 158" version="1.1" xmlns="http://www.w3.org/2000/svg" xmlns:xlink="http://www.w3.org/1999/xlink"><title>占位-搜索</title><defs><linearGradient x1="64.022%" y1="100%" x2="64.022%" y2="0%" id="linearGradient-1"><stop stop-color="#FFFFFF" stop-opacity="0.5" offset="0%"></stop><stop stop-color="#F2F3F5" offset="100%"></stop></linearGradient><linearGradient x1="64.022%" y1="96.956%" x2="64.022%" y2="0%" id="linearGradient-2"><stop stop-color="#F2F3F5" stop-opacity="0.3" offset="0%"></stop><stop stop-color="#F2F3F5" offset="100%"></stop></linearGradient><linearGradient x1="64.022%" y1="50.0856347%" x2="64.022%" y2="0%" id="linearGradient-3"><stop stop-color="#F2F3F5" stop-opacity="0.3" offset="0%"></stop><stop stop-color="#F2F3F5" offset="100%"></stop></linearGradient><linearGradient x1="64.022%" y1="100%" x2="64.022%" y2="0%" id="linearGradient-4"><stop stop-color="#FFFFFF" stop-opacity="0.5" offset="0%"></stop><stop stop-color="#F2F3F5" offset="100%"></stop></linearGradient><radialGradient cx="50%" cy="0%" fx="50%" fy="0%" r="100%" gradientTransform="translate(0.500000,0.000000),scale(0.131250,1.000000),rotate(90.000000),translate(-0.500000,-0.000000)" id="radialGradient-5"><stop stop-color="#EBEDF0" offset="0%"></stop><stop stop-color="#FFFFFF" stop-opacity="0" offset="100%"></stop></radialGradient><linearGradient x1="50%" y1="0%" x2="50%" y2="63.7249246%" id="linearGradient-6"><stop stop-color="#EBEDF0" offset="0%"></stop><stop stop-color="#DCDEE0" stop-opacity="0" offset="100%"></stop></linearGradient><filter id="filter-7"><feColorMatrix in="SourceGraphic" type="matrix" values="0 0 0 0 0.847000 0 0 0 0 0.847000 0 0 0 0 0.847000 0 0 0 1.000000 0"></feColorMatrix></filter></defs><g id="页面-1" stroke="none" stroke-width="1" fill="none" fill-rule="evenodd"><g id="占位-搜索"><g id="编组" opacity="0.8" fill-rule="nonzero"><polygon id="路径" fill="url(#linearGradient-1)" transform="translate(24.000000, 90.000000) scale(-1, 1) translate(-24.000000, -90.000000) " points="7 129 7 51 27 51 27 71 41 71 41 129"></polygon><path d="M47.5,10 L47.62,9.995 L56,16 C55.7338147,12.9851329 57.1918168,10.0781663 59.7673807,8.48859123 C62.3429446,6.89901615 65.5950554,6.89901615 68.1706193,8.48859123 C70.7461832,10.0781663 72.2041853,12.9851329 71.938,16 L71.938,32 L41,32 L41,31.826 C41.4436221,34.3785055 40.3290859,36.9507159 38.1633665,38.3725964 C35.997647,39.7944769 33.194353,39.7944769 31.0286335,38.3725964 C28.8629141,36.9507159 27.7483779,34.3785055 28.192,31.826 C20.7842047,37.6780092 10.0350092,36.4167953 4.183,29.009 C-1.66900921,21.6012047 -0.407795349,10.8520092 7,5 C20.720142,2.95429639 30.4653126,2.28762972 36.2355119,3 C39.4653126,3.39874083 43.220142,5.73207417 47.5,10 Z" id="路径" fill="url(#linearGradient-2)"></path><path d="M84.977402,0.0023070182 L85.2907005,-0.004 C89.0327802,-0.004 92.066,2.69225028 92.066,6.01604887 C92.066,9.34142422 89.0327802,12.0360977 85.2907005,12.0360977 C85.003656,12.0360977 84.7218624,12.0203302 84.4435693,11.9887951 L84.4435693,12.0360977 L72.5872327,12.0360977 L72.5872327,11.9052271 C69.5122588,11.869254 67.046154,9.60393157 67.066,6.83362608 C67.0860867,4.06332059 69.5846358,1.82703689 72.659869,1.82703689 C75.7351021,1.82703689 78.2336512,4.06332059 78.2536176,6.83362608 C78.2735839,9.60393157 75.8074791,11.869254 72.7325052,11.9052271 C75.1618815,16.5582298 72.6974998,14.3681177 72.6974998,11.6671372 C72.6974998,9.08756673 74.9448479,6.97471564 77.792539,6.7886586 C81.1847835,6.89488574 83.8566228,9.43068498 83.7976554,12.4880169 C83.7386879,15.5453488 80.9706738,17.996 77.5763805,17.996 C74.1820873,17.996 71.4140732,15.5453488 71.3551057,12.4880169 C71.2961383,9.43068498 73.9679776,6.89488574 77.3602221,6.7886586 C77.3602221,3.25672841 80.5842215,0.391765392 84.5590872,0.391765392 L84.977402,0.0023070182 Z" id="路径" fill="url(#linearGradient-3)"></path><polygon id="路径" fill="url(#linearGradient-4)" points="128 13 142 14.4118542 150.231 27 159 27 159 104.37 128 104.37"></polygon><polygon id="路径" fill="url(#linearGradient-4)" transform="translate(111.500000, 48.685000) scale(-1, 1) translate(-111.500000, -48.685000) " points="96 3 118.231 3 118.231 17 127 17 127 94.37 96 94.37"></polygon></g><polygon id="路径" fill="url(#radialGradient-5)" fill-rule="nonzero" points="5 137 165 137 165 158 5 158"></polygon><path d="M85,52 L85,78.742 C85,79.972 84.185937,80.969 83.1816266,80.969 L81.9192982,80.969 C71.3290234,90.1443827 56.6705933,87.0681312 49.1787783,74.098 C41.6869632,61.1278688 44.1987611,43.1753827 54.7890359,34 L54.7890359,65.326 C47.7258464,65.326 42,58.313436 42,49.663 C42,41.012564 47.7258464,34 54.7890359,34 C64.3676736,35.5592903 70.8913654,37.3722925 74.3601114,39.4390067 C77.6049129,41.3722925 81.1515425,45.5592903 85,52 Z" id="路径" fill="url(#linearGradient-6)" fill-rule="nonzero"></path><g filter="url(#filter-7)" id="编组" opacity="0.8"><g transform="translate(82.000000, 102.500000) scale(-1, 1) translate(-82.000000, -102.500000) translate(48.000000, 68.000000)"><path d="M42.5000017,0 C28.4176248,0 17.0000017,11.5851692 17.0000017,25.8741915 C17.0000017,30.2426174 18.0773762,34.3544577 19.9643759,37.9660636 L2.23337808,55.952939 L2.24825307,55.9658761 C0.809256938,57.3930879 -0.00134837842,59.3490529 1.68369652e-06,61.3908315 C1.68369652e-06,65.5932592 3.35747558,69 7.49912744,69 C9.59225218,69 11.481377,68.1245899 12.8435018,66.7166026 L12.8392518,66.7122903 L30.5638746,48.7297272 C34.1253741,50.6508859 38.1841236,51.7483829 42.5000017,51.7483829 C56.5823713,51.7483829 68.0000017,40.1632136 68.0000017,25.8741915 C68.0000017,11.5851693 56.5823713,0 42.5000017,0 Z M10.1893771,64.0213743 C9.48808477,64.7684151 8.51591427,65.1915075 7.49912744,65.1921821 C6.50459544,65.1927535 5.55060392,64.7922807 4.84716424,64.0789229 C4.14372455,63.3655651 3.74850294,62.3978016 3.74850294,61.3886754 C3.74850294,60.3148964 4.19475291,59.3553951 4.90237775,58.6589482 L4.88325275,58.6416987 L22.0235006,41.2499297 C23.5211298,43.2985038 25.3067052,45.1131871 27.32325,46.6360739 L10.1893771,64.0213743 L10.1893771,64.0213743 Z M42.4999981,47.4381738 C30.7657495,47.4381738 21.2500007,37.7806319 21.2500007,25.8763476 C21.2500007,13.9699072 30.7657495,4.3145214 42.4999981,4.3145214 C54.2321216,4.3145214 63.7500007,13.9699072 63.7500007,25.8763476 C63.7500007,37.7806319 54.2321217,47.4381738 42.4999981,47.4381738 Z" id="形状" fill="#333333" fill-rule="nonzero"></path><path d="M41.9335822,11 C33.6859925,11 27,17.6859925 27,25.9335822 C27,26.5225916 27.477675,27 28.0666844,27 C28.6556939,27 29.1332216,26.5225916 29.1333689,25.9335822 C29.1333689,18.8642196 34.8642196,13.1333689 41.9335822,13.1333689 C42.5225916,13.1332216 43,12.6556939 43,12.0666844 C43,11.477675 42.5225916,11 41.9335822,11 L41.9335822,11 Z" id="路径" fill="#333333" fill-rule="nonzero"></path></g></g></g></g></svg>