<svg viewBox="0 0 165 158" version="1.1" xmlns="http://www.w3.org/2000/svg" xmlns:xlink="http://www.w3.org/1999/xlink">
  <title>占位-文本</title>
  <defs>
    <linearGradient x1="64.022%" y1="100%" x2="64.022%" y2="0%" id="linearGradient-1">
    <stop stop-color="#FFFFFF" stop-opacity="0.5" offset="0%"></stop>
    <stop stop-color="#F2F3F5" offset="100%"></stop>
    </linearGradient>
    <linearGradient x1="64.022%" y1="96.956%" x2="64.022%" y2="0%" id="linearGradient-2">
    <stop stop-color="#F2F3F5" stop-opacity="0.3" offset="0%"></stop>
    <stop stop-color="#F2F3F5" offset="100%"></stop>
    </linearGradient>
    <linearGradient x1="64.022%" y1="50.0856347%" x2="64.022%" y2="0%" id="linearGradient-3">
    <stop stop-color="#F2F3F5" stop-opacity="0.3" offset="0%"></stop>
    <stop stop-color="#F2F3F5" offset="100%"></stop>
    </linearGradient>
    <linearGradient x1="64.022%" y1="100%" x2="64.022%" y2="0%" id="linearGradient-4">
    <stop stop-color="#FFFFFF" stop-opacity="0.5" offset="0%"></stop>
    <stop stop-color="#F2F3F5" offset="100%"></stop>
    </linearGradient>
    <radialGradient cx="50%" cy="0%" fx="50%" fy="0%" r="100%" gradientTransform="translate(0.500000,0.000000),scale(0.131250,1.000000),rotate(90.000000),translate(-0.500000,-0.000000)" id="radialGradient-5">
    <stop stop-color="#EBEDF0" offset="0%"></stop>
    <stop stop-color="#FFFFFF" stop-opacity="0" offset="100%"></stop>
    </radialGradient>
    <linearGradient x1="50%" y1="0%" x2="50%" y2="63.7249246%" id="linearGradient-6">
    <stop stop-color="#EBEDF0" offset="0%"></stop>
    <stop stop-color="#DCDEE0" stop-opacity="0" offset="100%"></stop>
    </linearGradient>
    <filter id="filter-7">
      <feColorMatrix in="SourceGraphic" type="matrix" values="0 0 0 0 0.847000 0 0 0 0 0.847000 0 0 0 0 0.847000 0 0 0 1.000000 0"></feColorMatrix>
    </filter>
  </defs>
  <g id="页面-1" stroke="none" stroke-width="1" fill="none" fill-rule="evenodd">
      <g id="占位-文本">
          <g id="编组" opacity="0.8" fill-rule="nonzero">
          <polygon id="路径" fill="url(#linearGradient-1)" transform="translate(24.000000, 90.000000) scale(-1, 1) translate(-24.000000, -90.000000) " points="7 129 7 51 27 51 27 71 41 71 41 129"></polygon>
          <path d="M47.5,10 L47.62,9.995 L56,16 C55.7338147,12.9851329 57.1918168,10.0781663 59.7673807,8.48859123 C62.3429446,6.89901615 65.5950554,6.89901615 68.1706193,8.48859123 C70.7461832,10.0781663 72.2041853,12.9851329 71.938,16 L71.938,32 L41,32 L41,31.826 C41.4436221,34.3785055 40.3290859,36.9507159 38.1633665,38.3725964 C35.997647,39.7944769 33.194353,39.7944769 31.0286335,38.3725964 C28.8629141,36.9507159 27.7483779,34.3785055 28.192,31.826 C20.7842047,37.6780092 10.0350092,36.4167953 4.183,29.009 C-1.66900921,21.6012047 -0.407795349,10.8520092 7,5 C20.720142,2.95429639 30.4653126,2.28762972 36.2355119,3 C39.4653126,3.39874083 43.220142,5.73207417 47.5,10 Z" id="路径" fill="url(#linearGradient-2)"></path>
          <path d="M84.977402,0.0023070182 L85.2907005,-0.004 C89.0327802,-0.004 92.066,2.69225028 92.066,6.01604887 C92.066,9.34142422 89.0327802,12.0360977 85.2907005,12.0360977 C85.003656,12.0360977 84.7218624,12.0203302 84.4435693,11.9887951 L84.4435693,12.0360977 L72.5872327,12.0360977 L72.5872327,11.9052271 C69.5122588,11.869254 67.046154,9.60393157 67.066,6.83362608 C67.0860867,4.06332059 69.5846358,1.82703689 72.659869,1.82703689 C75.7351021,1.82703689 78.2336512,4.06332059 78.2536176,6.83362608 C78.2735839,9.60393157 75.8074791,11.869254 72.7325052,11.9052271 C75.1618815,16.5582298 72.6974998,14.3681177 72.6974998,11.6671372 C72.6974998,9.08756673 74.9448479,6.97471564 77.792539,6.7886586 C81.1847835,6.89488574 83.8566228,9.43068498 83.7976554,12.4880169 C83.7386879,15.5453488 80.9706738,17.996 77.5763805,17.996 C74.1820873,17.996 71.4140732,15.5453488 71.3551057,12.4880169 C71.2961383,9.43068498 73.9679776,6.89488574 77.3602221,6.7886586 C77.3602221,3.25672841 80.5842215,0.391765392 84.5590872,0.391765392 L84.977402,0.0023070182 Z" id="路径" fill="url(#linearGradient-3)"></path>
          <polygon id="路径" fill="url(#linearGradient-4)" points="128 13 142 14.4118542 150.231 27 159 27 159 104.37 128 104.37"></polygon>
          <polygon id="路径" fill="url(#linearGradient-4)" transform="translate(111.500000, 48.685000) scale(-1, 1) translate(-111.500000, -48.685000) " points="96 3 118.231 3 118.231 17 127 17 127 94.37 96 94.37"></polygon>
          </g>
          <polygon id="路径" fill="url(#radialGradient-5)" fill-rule="nonzero" points="5 137 165 137 165 158 5 158"></polygon>
          <path d="M85,52 L85,78.742 C85,79.972 84.185937,80.969 83.1816266,80.969 L81.9192982,80.969 C71.3290234,90.1443827 56.6705933,87.0681312 49.1787783,74.098 C41.6869632,61.1278688 44.1987611,43.1753827 54.7890359,34 L54.7890359,65.326 C47.7258464,65.326 42,58.313436 42,49.663 C42,41.012564 47.7258464,34 54.7890359,34 C64.3676736,35.5592903 70.8913654,37.3722925 74.3601114,39.4390067 C77.6049129,41.3722925 81.1515425,45.5592903 85,52 Z" id="路径" fill="url(#linearGradient-6)" fill-rule="nonzero"></path>
          <g filter="url(#filter-7)" id="编组" opacity="0.8">
              <g transform="translate(40.000000, 60.000000)">
                  <path d="M75.59375,60.0790274 L75.59375,72.9209726 L6.40625,72.9209726 L6.40625,60.0790274 L75.59375,60.0790274 M77.1953125,54 L4.8046875,54 C2.15410156,54 0,56.0440729 0,58.5592705 L0,74.4407295 C0,76.9559271 2.15410156,79 4.8046875,79 L77.1953125,79 C79.8458984,79 82,76.9559271 82,74.4407295 L82,58.5592705 C82,56.0440729 79.8458984,54 77.1953125,54 Z" id="形状" fill="#000000" fill-rule="nonzero"></path>
                  <path d="M53.5,6.21761658 L53.5,53.7823834 L14.5,53.7823834 L14.5,6.21761658 L53.5,6.21761658 M55.125,0 L12.875,0 C10.185625,0 8,2.09067358 8,4.66321244 L8,55.3367876 C8,57.9093264 10.185625,60 12.875,60 L55.125,60 C57.814375,60 60,57.9093264 60,55.3367876 L60,4.66321244 C60,2.09067358 57.814375,0 55.125,0 Z" id="形状" fill="#000000" fill-rule="nonzero"></path>
                  <path d="M64.5403727,15.1302682 L64.5403727,53.0613027 L59.3726708,53.0613027 L59.3726708,15.1302682 L64.5403727,15.1302682 M66.1552795,9 L57.757764,9 C55.0850932,9 52.9130435,11.0613027 52.9130435,13.5977011 L52.9130435,54.5938697 C52.9130435,57.1302682 55.0850932,59.1915709 57.757764,59.1915709 L66.1552795,59.1915709 C68.8279503,59.1915709 71,57.1302682 71,54.5938697 L71,13.5977011 C71,11.0613027 68.8279503,9 66.1552795,9 Z M29.4161491,16.2796935 L22.2298137,16.2796935 C20.4453416,16.2796935 19,14.908046 19,13.2145594 C19,11.5210728 20.4453416,10.1494253 22.2298137,10.1494253 L29.4161491,10.1494253 C31.2006211,10.1494253 32.6459627,11.5210728 32.6459627,13.2145594 C32.6459627,14.908046 31.2006211,16.2796935 29.4161491,16.2796935 Z M44.6770186,27.1609195 L22.2298137,27.1609195 C20.4453416,27.1609195 19,25.789272 19,24.0957854 C19,22.4022989 20.4453416,21.0306513 22.2298137,21.0306513 L44.6770186,21.0306513 C46.4614907,21.0306513 47.9068323,22.4022989 47.9068323,24.0957854 C47.9068323,25.789272 46.4614907,27.1609195 44.6770186,27.1609195 Z M44.5962733,38.0421456 L22.2298137,38.0421456 C20.4453416,38.0421456 19,36.6704981 19,34.9770115 C19,33.2835249 20.4453416,31.9118774 22.2298137,31.9118774 L44.5962733,31.9118774 C46.3807453,31.9118774 47.826087,33.2835249 47.826087,34.9770115 C47.826087,36.6704981 46.3807453,38.0421456 44.5962733,38.0421456 Z M38.5403727,48.9233716 L22.2298137,48.9233716 C20.4453416,48.9233716 19,47.5517241 19,45.8582375 C19,44.164751 20.4453416,42.7931034 22.2298137,42.7931034 L38.5403727,42.7931034 C40.3248447,42.7931034 41.7701863,44.164751 41.7701863,45.8582375 C41.7701863,47.5517241 40.3248447,48.9233716 38.5403727,48.9233716 Z M42.9813665,69 L37.8136646,69 C36.0291925,69 34.5838509,67.6283525 34.5838509,65.9348659 C34.5838509,64.2413793 36.0291925,62.8697318 37.8136646,62.8697318 L42.9813665,62.8697318 C44.7658385,62.8697318 46.2111801,64.2413793 46.2111801,65.9348659 C46.2111801,67.6283525 44.7658385,69 42.9813665,69 Z" id="形状" fill="#000000" fill-rule="nonzero"></path>
              </g>
          </g>
      </g>
  </g>
</svg>