<svg viewBox="0 0 165 158" version="1.1" xmlns="http://www.w3.org/2000/svg" xmlns:xlink="http://www.w3.org/1999/xlink"><title>占位-无信号</title><defs><linearGradient x1="64.022%" y1="100%" x2="64.022%" y2="0%" id="linearGradient-1"><stop stop-color="#FFFFFF" stop-opacity="0.5" offset="0%"></stop><stop stop-color="#F2F3F5" offset="100%"></stop></linearGradient><linearGradient x1="64.022%" y1="96.956%" x2="64.022%" y2="0%" id="linearGradient-2"><stop stop-color="#F2F3F5" stop-opacity="0.3" offset="0%"></stop><stop stop-color="#F2F3F5" offset="100%"></stop></linearGradient><linearGradient x1="64.022%" y1="50.0856347%" x2="64.022%" y2="0%" id="linearGradient-3"><stop stop-color="#F2F3F5" stop-opacity="0.3" offset="0%"></stop><stop stop-color="#F2F3F5" offset="100%"></stop></linearGradient><linearGradient x1="64.022%" y1="100%" x2="64.022%" y2="0%" id="linearGradient-4"><stop stop-color="#FFFFFF" stop-opacity="0.5" offset="0%"></stop><stop stop-color="#F2F3F5" offset="100%"></stop></linearGradient><radialGradient cx="50%" cy="0%" fx="50%" fy="0%" r="100%" gradientTransform="translate(0.500000,0.000000),scale(0.131250,1.000000),rotate(90.000000),translate(-0.500000,-0.000000)" id="radialGradient-5"><stop stop-color="#EBEDF0" offset="0%"></stop><stop stop-color="#FFFFFF" stop-opacity="0" offset="100%"></stop></radialGradient><linearGradient x1="50%" y1="0%" x2="50%" y2="63.7249246%" id="linearGradient-6"><stop stop-color="#EBEDF0" offset="0%"></stop><stop stop-color="#DCDEE0" stop-opacity="0" offset="100%"></stop></linearGradient><filter id="filter-7"><feColorMatrix in="SourceGraphic" type="matrix" values="0 0 0 0 0.847000 0 0 0 0 0.847000 0 0 0 0 0.847000 0 0 0 1.000000 0"></feColorMatrix></filter></defs><g id="页面-1" stroke="none" stroke-width="1" fill="none" fill-rule="evenodd"><g id="占位-无信号"><g id="编组" opacity="0.8" fill-rule="nonzero"><polygon id="路径" fill="url(#linearGradient-1)" transform="translate(24.000000, 90.000000) scale(-1, 1) translate(-24.000000, -90.000000) " points="7 129 7 51 27 51 27 71 41 71 41 129"></polygon><path d="M47.5,10 L47.62,9.995 L56,16 C55.7338147,12.9851329 57.1918168,10.0781663 59.7673807,8.48859123 C62.3429446,6.89901615 65.5950554,6.89901615 68.1706193,8.48859123 C70.7461832,10.0781663 72.2041853,12.9851329 71.938,16 L71.938,32 L41,32 L41,31.826 C41.4436221,34.3785055 40.3290859,36.9507159 38.1633665,38.3725964 C35.997647,39.7944769 33.194353,39.7944769 31.0286335,38.3725964 C28.8629141,36.9507159 27.7483779,34.3785055 28.192,31.826 C20.7842047,37.6780092 10.0350092,36.4167953 4.183,29.009 C-1.66900921,21.6012047 -0.407795349,10.8520092 7,5 C20.720142,2.95429639 30.4653126,2.28762972 36.2355119,3 C39.4653126,3.39874083 43.220142,5.73207417 47.5,10 Z" id="路径" fill="url(#linearGradient-2)"></path><path d="M84.977402,0.0023070182 L85.2907005,-0.004 C89.0327802,-0.004 92.066,2.69225028 92.066,6.01604887 C92.066,9.34142422 89.0327802,12.0360977 85.2907005,12.0360977 C85.003656,12.0360977 84.7218624,12.0203302 84.4435693,11.9887951 L84.4435693,12.0360977 L72.5872327,12.0360977 L72.5872327,11.9052271 C69.5122588,11.869254 67.046154,9.60393157 67.066,6.83362608 C67.0860867,4.06332059 69.5846358,1.82703689 72.659869,1.82703689 C75.7351021,1.82703689 78.2336512,4.06332059 78.2536176,6.83362608 C78.2735839,9.60393157 75.8074791,11.869254 72.7325052,11.9052271 C75.1618815,16.5582298 72.6974998,14.3681177 72.6974998,11.6671372 C72.6974998,9.08756673 74.9448479,6.97471564 77.792539,6.7886586 C81.1847835,6.89488574 83.8566228,9.43068498 83.7976554,12.4880169 C83.7386879,15.5453488 80.9706738,17.996 77.5763805,17.996 C74.1820873,17.996 71.4140732,15.5453488 71.3551057,12.4880169 C71.2961383,9.43068498 73.9679776,6.89488574 77.3602221,6.7886586 C77.3602221,3.25672841 80.5842215,0.391765392 84.5590872,0.391765392 L84.977402,0.0023070182 Z" id="路径" fill="url(#linearGradient-3)"></path><polygon id="路径" fill="url(#linearGradient-4)" points="128 13 142 14.4118542 150.231 27 159 27 159 104.37 128 104.37"></polygon><polygon id="路径" fill="url(#linearGradient-4)" transform="translate(111.500000, 48.685000) scale(-1, 1) translate(-111.500000, -48.685000) " points="96 3 118.231 3 118.231 17 127 17 127 94.37 96 94.37"></polygon></g><polygon id="路径" fill="url(#radialGradient-5)" fill-rule="nonzero" points="5 137 165 137 165 158 5 158"></polygon><path d="M85,52 L85,78.742 C85,79.972 84.185937,80.969 83.1816266,80.969 L81.9192982,80.969 C71.3290234,90.1443827 56.6705933,87.0681312 49.1787783,74.098 C41.6869632,61.1278688 44.1987611,43.1753827 54.7890359,34 L54.7890359,65.326 C47.7258464,65.326 42,58.313436 42,49.663 C42,41.012564 47.7258464,34 54.7890359,34 C64.3676736,35.5592903 70.8913654,37.3722925 74.3601114,39.4390067 C77.6049129,41.3722925 81.1515425,45.5592903 85,52 Z" id="路径" fill="url(#linearGradient-6)" fill-rule="nonzero"></path><g filter="url(#filter-7)" id="编组" opacity="0.8"><g transform="translate(40.000000, 60.000000)"><path d="M44.5,7.02645499 C58.4166667,7.02645499 72.5,12.1904762 83.125,22.984127 C84.4583333,24.3386243 86.6666667,24.3386243 88,22.984127 C88.6666667,22.3492064 89,21.4179895 89,20.4867725 C89,19.5555555 88.625,18.6666667 88,17.989418 C76.0416666,5.84126983 60.1666667,0 44.5,0 C28.8333334,0 12.9583334,5.84126983 1,17.989418 C0.333333328,18.6243386 0,19.5555556 0,20.4867725 C0,21.4179894 0.374999994,22.3068783 1,22.984127 C2.3333333,24.3386243 4.54166667,24.3386243 5.87499998,22.984127 C16.5,12.1904762 30.5833333,7.02645507 44.5,7.02645499 Z" id="路径" fill="#CDCDCD" fill-rule="nonzero"></path><path d="M78.1746955,34.7759718 C77.0005956,36.159479 74.9459206,36.3691013 73.4782956,35.3209897 C64.420953,28.6550004 54.7765604,23.9175362 44,23.9175362 C33.2234396,23.9175362 23.579047,28.6130759 14.5217044,35.3209897 C13.0540794,36.4110257 11.0413366,36.159479 9.82530448,34.7759718 C9.19632237,34.0213315 8.90279738,33.1409178 9.0285938,32.1347307 C9.15439023,31.1285436 9.61564378,30.3319789 10.4123545,29.7450364 C20.6857292,22.1567088 31.7558146,17 44,17 C56.2441854,17 67.3142708,22.1567088 77.5876455,29.7450364 C78.3843562,30.3319788 78.8456098,31.1285436 78.9714062,32.1347307 C79.0972026,33.1409178 78.8036776,34.0213315 78.1746955,34.7759718 Z" id="路径" fill="#CDCDCD" fill-rule="nonzero"></path><path d="M44.2669129,40.1576292 C50.0655027,40.1576292 55.2800618,41.6325346 60.2860386,44.5389659 C61.1620845,42.1964691 62.8724599,40.2443884 65,39.1165195 C58.5339467,35.0388398 51.775878,33 44.2669129,33 C35.5481701,33 27.8306226,35.732913 20.4468068,41.198739 C19.6124774,41.806053 19.1535962,42.6302648 19.0284467,43.6713745 C18.9032973,44.7124842 19.1953126,45.6234552 19.8210597,46.4476671 C20.9891209,47.8791929 22.9497952,48.0960908 24.4098717,47.0549811 C30.6256262,42.4567465 36.9665301,40.1576293 44.2669129,40.1576292 Z M44.2669129,56.2080706 L44.1417635,56.2080706 C40.6375798,56.2080706 37.2585455,57.2925599 34.4218253,59.2446406 C32.9617487,60.2423707 31.0427909,59.9820933 29.9164462,58.593947 C29.2489827,57.7697352 28.9986838,56.8153846 29.1238332,55.7742749 C29.2489825,54.7331652 29.7912968,53.8655738 30.6256263,53.3016393 C34.6304077,50.5687263 39.3026527,49.0504413 44.18348,49.0504413 L44.4337788,49.0504413 C48.4385603,49.0504413 52.3599087,50.0481715 55.8223759,51.9568726 C54.9880465,52.8678436 54.4457323,54.0824716 54.4457323,55.4272384 L54.4457323,59.4615384 C54.3622994,59.4181589 54.23715,59.3313997 54.153717,59.2880201 C51.2752804,57.2925599 47.8962461,56.2514501 44.4337788,56.2514502 L44.3086294,56.2514502 L44.2669129,56.2080706 Z M39.0940703,70.43657 C39.0106374,72.3886507 40.0118327,74.2539723 41.6387751,75.2517024 C43.2657175,76.2494325 45.3098248,76.2494325 46.9367672,75.2517024 C48.5637096,74.2539723 49.5231885,72.3886507 49.4814721,70.43657 C49.3980391,67.5301387 47.1036331,65.2310215 44.3086294,65.2310215 C41.5136258,65.2310215 39.2192197,67.5301387 39.1357868,70.43657 L39.0940703,70.43657 Z" id="形状" fill="#CDCDCD" fill-rule="nonzero"></path><path d="M78.7606707,51.4347826 L78.3902439,51.4347826 L78.3902439,49.3913043 C78.3902439,44.2173913 74.3978658,40 69.5,40 C64.6021342,40 60.6097561,44.2173913 60.6097561,49.3913043 L60.6097561,51.4347826 L60.2393293,51.4347826 C57.8932927,51.4347826 56,53.4347826 56,55.9130435 L56,72.5217391 C56,75 57.8932927,77 60.2393293,77 L78.7606707,77 C81.1067073,77 83,75 83,72.5217391 L83,55.9130435 C83,53.4347826 81.1067073,51.4347826 78.7606707,51.4347826 Z M64.2728659,49.3913043 C64.2728659,45.5652174 67.3185976,43.8695652 69.5,43.8695652 C71.6814024,43.8695652 74.7271341,45.5652174 74.7271341,49.3913043 L74.7271341,51.4347826 L64.2728659,51.4347826 L64.2728659,49.3913043 Z M79.3780488,71.1304348 C79.3780488,71.6521739 79.1722561,72.173913 78.8018293,72.5652174 C78.4314024,72.9565217 77.9375,73.173913 77.4435976,73.173913 L61.597561,73.173913 C61.1036585,73.173913 60.6097561,72.9565217 60.2393293,72.5652174 C59.8689024,72.173913 59.6631098,71.6521739 59.6631098,71.1304348 L59.6631098,57.3043478 C59.6631098,56.1739131 60.527439,55.2608695 61.597561,55.2608695 L77.4435976,55.2608695 C77.9375,55.2608695 78.4314024,55.4782608 78.8018293,55.8695653 C79.1722561,56.2608695 79.3780488,56.7826087 79.3780488,57.3043478 L79.3780488,71.1304348 Z" id="形状" fill="#000000" fill-rule="nonzero"></path></g></g></g></g></svg>
