<?xml version="1.0" standalone="no"?><!DOCTYPE svg PUBLIC "-//W3C//DTD SVG 1.1//EN" "http://www.w3.org/Graphics/SVG/1.1/DTD/svg11.dtd"><svg t="1634539984471" class="icon" viewBox="0 0 1053 1024" version="1.1" xmlns="http://www.w3.org/2000/svg" p-id="6501" xmlns:xlink="http://www.w3.org/1999/xlink" width="131.625" height="128"><defs><style type="text/css"></style></defs><path d="M525.71988125 86.43820813a20.15955656 20.15955656 0 0 1-25.78228969 0.16456781l445.29306094 357.66070312a29.56734938 29.56734938 0 1 0 37.02775688-46.07898656L536.96534844 40.44150594a39.00257062 39.00257062 0 0 0-48.73949907 0.21942375L42.85050406 405.75461188a29.56734938 29.56734938 0 1 0 37.49403282 45.74985L525.71988125 86.43820813z" p-id="6502"></path><path d="M982.25840937 560.8323425L536.96534844 203.17164031a39.00257062 39.00257062 0 0 0-48.73949907 0.19199532L42.85050406 568.42989031a29.56734938 29.56734938 0 1 0 37.49403282 45.74985l62.59062281-51.29029969v339.00968438A88.72947656 88.72947656 0 0 0 231.69206469 990.62860156H446.12391781v-231.82118531a14.81110313 14.81110313 0 0 1 14.75624719-14.81110313h103.56800719c8.14610625 0 14.78367469 6.63756844 14.78367468 14.81110313v231.82118531H793.66370094a88.70204812 88.70204812 0 0 0 88.72947656-88.70204812V556.49872344l62.81004656 50.46746156a29.56734938 29.56734938 0 1 0 37.05518531-46.1338425z m-159.02735906 341.0667825c0 16.34706938-13.22028094 29.56734938-29.59477781 29.56734938h-155.24229844v-172.68648657a73.94580188 73.94580188 0 0 0-73.94580187-73.97322937h-103.56800719a73.94580188 73.94580188 0 0 0-73.91837344 73.97322937v172.68648657h-155.24229937c-16.37449687 0-29.62220531-13.24770844-29.62220531-29.56734938V514.36936531L512.82873688 259.67325406l310.40231343 249.32022938v392.93307z" p-id="6503"></path></svg>