<?xml version="1.0" standalone="no"?><!DOCTYPE svg PUBLIC "-//W3C//DTD SVG 1.1//EN" "http://www.w3.org/Graphics/SVG/1.1/DTD/svg11.dtd"><svg t="1634539936478" class="icon" viewBox="0 0 1024 1024" version="1.1" xmlns="http://www.w3.org/2000/svg" p-id="5773" xmlns:xlink="http://www.w3.org/1999/xlink" width="128" height="128"><defs><style type="text/css"></style></defs><path d="M511.99999531 32.00000937a26.6496 26.6496 0 0 0-26.6688 26.66880001V272.0000075a26.6688 26.6688 0 1 0 53.3376 0V58.66880938A26.6496 26.6496 0 0 0 511.99999531 32.00000937zM511.99999531 725.33120281A26.6496 26.6496 0 0 0 485.33119531 752.00000281v213.33119719a26.6688 26.6688 0 1 0 53.3376 0V752.00000281A26.6496 26.6496 0 0 0 511.99999531 725.33120281zM210.31039813 172.60160844a26.664 26.664 0 0 0-37.70879907 37.70879906l150.83519813 150.82559906a26.664 26.664 0 1 0 37.70879906-37.7088zM700.56319344 662.86400375a26.664 26.664 0 0 0-37.7088 37.70879906l150.83519906 150.82559813a26.664 26.664 0 1 0 37.70879906-37.70879907zM298.66879719 512.00000469A26.6496 26.6496 0 0 0 271.99999719 485.33120469H58.6688a26.6688 26.6688 0 0 0 0 53.3376H271.99999719A26.6496 26.6496 0 0 0 298.66879719 512.00000469zM965.33119062 485.33120469H751.9999925a26.6688 26.6688 0 1 0 0 53.3376h213.33119813a26.6688 26.6688 0 0 0 0-53.3376zM323.43679719 662.86400375L172.60159906 813.68960187a26.664 26.664 0 1 0 37.70879906 37.70879907l150.82559813-150.83519813a26.664 26.664 0 1 0-37.70879906-37.70879906zM681.70879344 368.96000656a26.5824 26.5824 0 0 0 18.8544-7.8144l150.83519812-150.83519906a26.664 26.664 0 1 0-37.70879906-37.70879906L662.86399344 323.43680656A26.6688 26.6688 0 0 0 681.70879344 368.96000656z" p-id="5774"></path></svg>