<?xml version="1.0" standalone="no"?><!DOCTYPE svg PUBLIC "-//W3C//DTD SVG 1.1//EN" "http://www.w3.org/Graphics/SVG/1.1/DTD/svg11.dtd"><svg t="1634539970595" class="icon" viewBox="0 0 1024 1024" version="1.1" xmlns="http://www.w3.org/2000/svg" p-id="6062" xmlns:xlink="http://www.w3.org/1999/xlink" width="128" height="128"><defs><style type="text/css"></style></defs><path d="M215.8336 852.3008c-12.8-2.7648-21.2992-11.8016-29.8752-20.736-69.3248-71.9872-112.4096-157.2352-125.568-256.4096-19.6608-148.736 22.528-278.144 125.44-387.4304 17.4336-18.5088 45.8752-12.6208 53.2224 10.7264a30.9248 30.9248 0 0 1-7.5008 32.64c-63.2064 64.9216-101.12 142.464-110.6944 232.2688-13.056 121.728 22.1696 228.5056 105.4464 319.0272 4.0192 4.3008 8.0384 8.576 12.2624 12.8 19.9424 19.9424 12.8 47.7696-14.1312 55.6288a20.48 20.48 0 0 0-3.1232 1.5104h-5.4528z m751.5136-336.896c-2.56 117.6064-47.232 227.2512-138.4448 317.2352-8.9344 8.7552-18.0736 15.36-30.9504 13.4144s-21.9136-9.1136-25.6-21.4528a31.0016 31.0016 0 0 1 8.4992-33.28A408.4224 408.4224 0 0 0 851.5584 701.44a392.9088 392.9088 0 0 0-61.0048-472.1408C778.24 216.7808 776.2432 199.68 785.536 186.88a31.3088 31.3088 0 0 1 48.64-3.4816 451.3024 451.3024 0 0 1 120.5504 216.2432c8.3968 34.8672 12.2624 70.2208 12.8 115.8144z m0 0" fill="#2c2c2c" p-id="6063"></path><path d="M800.128 509.44c-1.4336 77.3632-30.2336 146.944-88.5504 204.0832-9.2928 9.1136-18.688 16.5376-32.384 14.1312-12.6208-2.2272-21.5552-9.5744-25.216-21.9904a30.72 30.72 0 0 1 8.6016-32.384 244.096 244.096 0 0 0 54.8352-76.288c37.4784-83.8144 19.4048-184.32-45.1584-249.6256-13.7728-13.952-14.3104-33.6384-1.3312-46.4128s32.5632-12.2624 46.336 2.048c54.656 56.32 81.92 124.0576 82.8928 206.4128z m-579.3792 0c0.9728-78.08 27.8016-145.92 81.7408-202.752 9.6512-10.24 21.0176-13.952 34.432-9.2928 21.632 7.5008 27.9808 35.584 11.9808 52.1472-88.0896 90.9568-87.552 230.7328 1.2544 321.4336 9.472 9.6512 18.432 19.1488 16.2816 34.3296-1.792 12.5184-8.3968 21.376-20.1216 25.6a29.056 29.056 0 0 1-31.9232-6.528q-91.904-87.8592-93.6448-215.04z m0 0M515.5328 413.5424a104.96 104.96 0 1 1-104.96 103.8336 104.6784 104.6784 0 0 1 104.96-103.8336z m-47.3088 104.8064A47.2832 47.2832 0 0 0 515.1744 565.76a47.488 47.488 0 1 0 0-94.976 47.232 47.232 0 0 0-46.8736 47.5904z m0 0" fill="#2c2c2c" p-id="6064"></path></svg>