<svg viewBox="0 0 200 200" xmlns="http://www.w3.org/2000/svg"><path d="M99.553.136C44.685.136.203 44.876.203 100.064c0 55.187 44.482 99.927 99.35 99.927 54.868 0 99.35-44.74 99.35-99.927 0-55.188-44.46-99.928-99.35-99.928zm.158 160.52c-5.487 0-9.935-4.474-9.935-9.993s4.448-9.993 9.935-9.993 9.935 4.474 9.935 9.993-4.448 9.993-9.935 9.993zM115.359 52.62v.045a16.575 16.575 0 01-.565 3.997l-8.896 61.978c0 3.52-2.823 6.359-6.322 6.359-3.5 0-6.323-2.839-6.323-6.359l-8.896-61.978a15.528 15.528 0 01-.565-3.997v-.272c0-8.79 7.068-15.898 15.806-15.898s15.806 7.109 15.806 15.898c-.045.068-.045.136-.045.227z" fill="rgba(247,187,10)" fill-rule="nonzero"/></svg>