<svg viewBox="0 0 200 200" xmlns="http://www.w3.org/2000/svg"><path d="M100.064.18C44.876.18.136 44.663.136 99.53c0 54.868 44.74 99.35 99.928 99.35 55.187 0 99.927-44.482 99.927-99.35 0-54.868-44.74-99.35-99.927-99.35zm.136 167.089c-5.519 0-9.993-4.448-9.993-9.935s4.474-9.935 9.993-9.935 9.993 4.448 9.993 9.935-4.474 9.935-9.993 9.935zm33.362-69.093c-6.11 7.473-14.603 12.78-24.005 14.97v13.502c0 5.487-4.474 9.935-9.993 9.935s-9.993-4.448-9.993-9.935v-13.976c0-4.38 1.522-8.67 4.293-12.103 2.748-3.387 6.631-5.78 10.923-6.729 5.178-1.151 9.88-4.064 13.264-8.196 3.452-4.245 5.291-9.393 5.291-14.857 0-6.3-2.475-12.238-6.972-16.71-4.497-4.47-10.447-6.931-16.806-6.931-13.104 0-23.755 10.59-23.755 23.618 0 5.487-4.475 9.935-9.993 9.935-5.519 0-9.993-4.448-9.993-9.935 0-23.98 19.622-43.488 43.741-43.488 11.673 0 22.665 4.516 30.932 12.757 8.267 8.22 12.809 19.148 12.809 30.754a43.445 43.445 0 01-9.743 27.389z" fill="rgba(216, 216, 216)" fill-rule="nonzero"/></svg>
