<?xml version="1.0" standalone="no"?><!DOCTYPE svg PUBLIC "-//W3C//DTD SVG 1.1//EN" "http://www.w3.org/Graphics/SVG/1.1/DTD/svg11.dtd"><svg t="1634539994764" class="icon" viewBox="0 0 1024 1024" version="1.1" xmlns="http://www.w3.org/2000/svg" p-id="6942" xmlns:xlink="http://www.w3.org/1999/xlink" width="128" height="128"><defs><style type="text/css"></style></defs><path d="M970.752 520.192c0-35.49866667-2.73066667-65.536-10.92266667-87.38133333 2.73066667-21.84533333-10.92266667-38.22933333-32.768-43.69066667h-2.73066666c-38.22933333-8.192-65.536-27.30666667-87.38133334-65.536-19.11466667-32.768-24.576-70.99733333-10.92266666-106.496 8.192-16.384 2.73066667-38.22933333-13.65333334-51.88266667-40.96-38.22933333-92.84266667-68.26666667-150.18666666-87.38133333-16.384-8.192-38.22933333-2.73066667-51.88266667 13.65333333-24.576 30.03733333-60.07466667 46.42133333-101.03466667 46.42133334-35.49866667 0-70.99733333-16.384-101.03466666-46.42133334-19.11466667-19.11466667-38.22933333-16.384-51.88266667-13.65333333-60.07466667 21.84533333-106.496 49.152-144.72533333 84.65066667-19.11466667 10.92266667-24.576 32.768-16.384 49.152 10.92266667 40.96 8.192 79.18933333-10.92266667 111.95733333-16.384 32.768-49.152 54.61333333-87.38133333 65.536-2.73066667 0-5.46133333 0-5.46133334 2.73066667-13.65333333 8.192-24.576 19.11466667-27.30666666 32.768v2.73066666c-5.46133333 30.03733333-10.92266667 57.344-10.92266667 90.112 0 35.49866667 2.73066667 65.536 10.92266667 87.38133334-2.73066667 16.384 5.46133333 32.768 30.03733333 43.69066666h2.73066667c38.22933333 8.192 65.536 27.30666667 87.38133333 65.536 19.11466667 32.768 24.576 70.99733333 10.92266667 106.496-8.192 16.384-2.73066667 38.22933333 13.65333333 51.88266667 38.22933333 35.49866667 90.112 68.26666667 150.18666667 90.112h2.73066666c2.73066667 0 2.73066667 2.73066667 5.46133334 2.73066667h5.46133333c13.65333333 0 27.30666667-5.46133333 38.22933333-16.384 24.576-30.03733333 60.07466667-46.42133333 101.03466667-46.42133334 35.49866667 0 70.99733333 16.384 101.03466667 46.42133334 10.92266667 10.92266667 21.84533333 16.384 35.49866666 16.384 5.46133333 0 13.65333333 0 19.11466667-2.73066667 62.80533333-24.576 106.496-51.88266667 147.456-87.38133333 16.384-10.92266667 24.576-32.768 16.384-49.152-10.92266667-40.96-8.192-79.18933333 10.92266667-111.95733334 16.384-32.768 49.152-54.61333333 87.38133333-65.536 2.73066667 0 5.46133333 0 5.46133333-2.73066666 13.65333333-8.192 24.576-19.11466667 27.30666667-32.768v-2.73066667c5.46133333-30.03733333 8.192-60.07466667 8.192-90.112zM116.05333333 441.00266667c51.88266667-13.65333333 95.57333333-46.42133333 120.14933334-90.112 24.576-46.42133333 32.768-98.304 19.11466666-150.18666667 35.49866667-30.03733333 76.45866667-54.61333333 125.61066667-73.728 40.96 38.22933333 87.38133333 60.07466667 139.264 60.07466667 54.61333333 0 106.496-21.84533333 139.264-60.07466667 46.42133333 16.384 87.38133333 40.96 122.88 73.728-13.65333333 54.61333333-8.192 106.496 19.11466667 150.18666667 24.576 46.42133333 65.536 79.18933333 117.41866666 92.84266666 5.46133333 21.84533333 8.192 49.152 8.192 76.45866667 0 21.84533333-2.73066667 43.69066667-8.192 73.728-54.61333333 16.384-95.57333333 49.152-117.41866666 92.84266667-24.576 46.42133333-32.768 98.304-19.11466667 150.18666666-35.49866667 30.03733333-76.45866667 54.61333333-125.61066667 73.728-40.96-38.22933333-90.112-57.344-139.264-57.344-54.61333333 0-103.76533333 21.84533333-139.264 60.07466667-46.42133333-16.384-87.38133333-40.96-122.88-73.728 13.65333333-54.61333333 8.192-106.496-19.11466666-150.18666667-24.576-46.42133333-65.536-79.18933333-117.41866667-92.84266666-5.46133333-21.84533333-8.192-51.88266667-8.192-76.45866667-2.73066667-27.30666667 0-49.152 5.46133333-79.18933333z" p-id="6943"></path><path d="M681.30133333 460.11733333c-5.46133333-13.65333333-19.11466667-21.84533333-32.768-19.11466666-13.65333333 5.46133333-21.84533333 21.84533333-16.384 35.49866666 8.192 21.84533333 8.192 49.152 0 79.18933334-10.92266667 30.03733333-32.768 54.61333333-60.07466666 70.99733333-30.03733333 13.65333333-62.80533333 16.384-92.84266667 5.46133333-30.03733333-10.92266667-54.61333333-32.768-70.99733333-60.07466666-13.65333333-30.03733333-16.384-62.80533333-5.46133334-92.84266667 10.92266667-30.03733333 32.768-54.61333333 60.07466667-70.99733333 30.03733333-13.65333333 62.80533333-16.384 92.84266667-5.46133334 13.65333333 5.46133333 30.03733333-2.73066667 35.49866666-16.384 5.46133333-13.65333333-2.73066667-30.03733333-16.384-35.49866666-43.69066667-16.384-92.84266667-13.65333333-136.53333333 8.192s-76.45866667 57.344-90.112 101.03466666c-16.384 43.69066667-13.65333333 92.84266667 8.192 136.53333334s57.344 76.45866667 101.03466667 90.112c16.384 5.46133333 38.22933333 10.92266667 57.344 10.92266666 76.45866667 0 141.99466667-49.152 166.57066666-120.14933333 10.92266667-40.96 10.92266667-79.18933333 0-117.41866667z" p-id="6944"></path></svg>